<svg xmlns="http://www.w3.org/2000/svg" width="70" height="70" fill="none"><path fill="#AA8A60" d="m51.084 21.413-1.1 1.1h-4.307a4.534 4.534 0 0 0-3.558 1.71l-5.97 7.465a4.496 4.496 0 0 0-.51 4.808l.12.242-3.282 3.282a.538.538 0 0 0-.124.201l-.008.013-2.239 6.716a.547.547 0 0 0 .692.692l6.716-2.239c.006-.001.01-.006.014-.008a.538.538 0 0 0 .2-.124l3.332-3.333a.547.547 0 1 0-.773-.773l-2.946 2.946-1.512-1.512 2.323-2.275a.547.547 0 1 0-.765-.782l-2.332 2.283-1.418-1.418 15.996-15.996 1.466 1.465-7.643 7.643a.547.547 0 1 0 .774.773l7.642-7.642 1.465 1.465-5.068 5.068a.547.547 0 1 0 .773.773l7.292-7.292a3.693 3.693 0 0 0 1.045-3.056h9.34a.547.547 0 1 0 0-1.094H57.08a3.68 3.68 0 0 0-.747-1.1 3.718 3.718 0 0 0-5.25 0ZM37.003 32.371l5.97-7.465a3.444 3.444 0 0 1 2.704-1.299h3.213l-12.31 12.31a3.396 3.396 0 0 1 .423-3.546Zm-3.9 9.048 3.225 3.226-4.838 1.613 1.613-4.839ZM55.56 25.891l-1.45 1.45-3.705-3.704 1.451-1.45a2.623 2.623 0 0 1 3.704 0 2.623 2.623 0 0 1 0 3.704Z"/><path fill="#AA8A60" d="M66.719 36.733h-3.281a.548.548 0 0 0-.272.071l-7.496 4.284-14.641-1.953a1.278 1.278 0 0 1-1.107-1.263c0-.662.517-1.22 1.176-1.27l12.538-.965a.535.535 0 0 0 .261-.09l3.282-2.188a.547.547 0 0 0-.607-.91l-3.163 2.109-12.394.953a2.379 2.379 0 0 0-2.187 2.361c0 1.181.884 2.19 2.055 2.348L52.9 41.822a1.97 1.97 0 0 1-2.07 1.348l-8.48-.813c-.292-.014-.567.191-.597.492a.548.548 0 0 0 .492.598l8.48.812a3.065 3.065 0 0 0 3.262-2.292l1.723.23a.57.57 0 0 0 .344-.067l7.53-4.304h3.136a.546.546 0 1 0 0-1.093ZM53.047 18.594v-4.375a.547.547 0 1 0-1.094 0v4.375a.546.546 0 1 0 1.094 0Z"/><path fill="#AA8A60" d="M52.5 45.39a.547.547 0 0 0-.547.547v18.594c0 .905-.736 1.64-1.64 1.64H9.843c-.904 0-1.64-.735-1.64-1.64V12.578h43.203a4.927 4.927 0 0 0 4.922-4.922 4.927 4.927 0 0 0-4.922-4.922H7.656c-.007 0-.012.004-.02.004A4.92 4.92 0 0 0 4.59 3.806a4.903 4.903 0 0 0-1.856 3.85v51.407a2.737 2.737 0 0 0 2.735 2.734.547.547 0 1 0 0-1.094c-.905 0-1.64-.736-1.64-1.64V7.656c0-1.171.525-2.263 1.443-2.995.917-.73 2.117-.996 3.293-.73a3.817 3.817 0 0 1 2.816 2.816c.268 1.175.002 2.376-.73 3.293a3.813 3.813 0 0 1-2.995 1.444.546.546 0 0 0-.547.547v52.5a2.737 2.737 0 0 0 2.735 2.734h40.468a2.737 2.737 0 0 0 2.735-2.734V45.937a.546.546 0 0 0-.547-.546ZM11.506 10.724c.94-1.18 1.284-2.718.94-4.22a4.842 4.842 0 0 0-1.683-2.675h40.643a3.833 3.833 0 0 1 3.828 3.828 3.833 3.833 0 0 1-3.828 3.828H10.75c.275-.223.53-.477.757-.761Z"/><path fill="#AA8A60" d="M15.603 26.462a.547.547 0 0 0 .44 1.002c.412-.182.77-.413 1.068-.687a.547.547 0 0 0-.744-.803 2.723 2.723 0 0 1-.764.488Zm.001 9.121a4.035 4.035 0 0 0 1.252-.076.547.547 0 1 0-.227-1.07 2.87 2.87 0 0 1-.921.057.554.554 0 0 0-.597.492c-.029.3.192.567.492.597Zm2.7-1.113a.546.546 0 0 0 .68.37c.373-.11.672-.167.938-.176a.547.547 0 0 0 .526-.569c-.012-.302-.27-.52-.568-.525a4.89 4.89 0 0 0-1.206.22.547.547 0 0 0-.37.68Zm-5.327-5.413a.543.543 0 0 0 .399-.173c.211-.226.46-.431.737-.611a.547.547 0 0 0-.595-.919 5.048 5.048 0 0 0-.94.782.547.547 0 0 0 .399.921Zm4.909-11.839a3.117 3.117 0 0 0-.851 1.004.547.547 0 0 0 .966.513c.133-.251.32-.47.554-.652a.547.547 0 0 0-.67-.865Zm-.296 7.767a.547.547 0 0 0 .608-.478 6.606 6.606 0 0 0 .017-1.195.546.546 0 1 0-1.09.079c.01.15.017.297.017.442 0 .186-.01.368-.03.546a.546.546 0 0 0 .478.606Zm9.797-5.541a8.364 8.364 0 0 1-.934-.423.547.547 0 1 0-.51.968c.342.18.696.343 1.058.478a.546.546 0 1 0 .386-1.023Zm3.526.503a.548.548 0 0 0-.702-.326 3.051 3.051 0 0 1-.906.18.547.547 0 0 0 .025 1.093c.009 0 .018 0 .027-.002a4.092 4.092 0 0 0 1.23-.243.548.548 0 0 0 .326-.702Zm-14.238.726c.043.383.117.765.2 1.135a.547.547 0 0 0 1.067-.24 9.605 9.605 0 0 1-.18-1.019.547.547 0 0 0-1.086.124ZM13.317 34.7a.548.548 0 0 0 .645-.885 3.671 3.671 0 0 1-.69-.652.546.546 0 1 0-.848.69c.257.317.558.602.893.847Zm-1.845-4.353a4.23 4.23 0 0 0-.017 1.248.548.548 0 0 0 1.085-.14 3.332 3.332 0 0 1 .012-.933.546.546 0 0 0-.452-.627.54.54 0 0 0-.628.452Zm13.184 5.739a.547.547 0 1 0-.109 1.087c.093.01.185.015.28.015a3.01 3.01 0 0 0 1.037-.194.547.547 0 1 0-.378-1.025 1.869 1.869 0 0 1-.83.117Zm8.269-8.207a.547.547 0 0 0 .768.09c.293-.229.583-.464.865-.705a.546.546 0 1 0-.712-.831c-.27.233-.55.457-.829.678a.547.547 0 0 0-.092.768Zm2.671-9.731a.547.547 0 0 0-.515.966c.261.139.502.327.715.557a.543.543 0 0 0 .772.031.546.546 0 0 0 .031-.773 3.794 3.794 0 0 0-1.003-.78Zm.286 5.975a6.338 6.338 0 0 1-.41.626l-.16.208a.546.546 0 1 0 .854.681l.183-.237c.173-.232.335-.477.482-.733a.547.547 0 0 0-.949-.545Zm1.198-1.231c.27 0 .504-.199.541-.473.031-.228.048-.455.048-.683 0-.181-.01-.365-.033-.547a.545.545 0 0 0-.608-.477.545.545 0 0 0-.477.608 3.66 3.66 0 0 1-.013.951.545.545 0 0 0 .543.62Zm-4.047-4.915c-.421.16-.793.391-1.07.575a.546.546 0 1 0 .606.91c.34-.224.602-.367.851-.461a.547.547 0 1 0-.387-1.024ZM31.29 28.48c-.29.24-.572.49-.845.749a.547.547 0 0 0 .756.792c.254-.243.52-.476.79-.702a.547.547 0 0 0-.702-.84Zm-9.822 6.055a.548.548 0 0 0 .08.77c.19.154.373.32.557.487l.244.22a.544.544 0 0 0 .772-.044.548.548 0 0 0-.044-.772l-.238-.214a15.04 15.04 0 0 0-.602-.527.547.547 0 0 0-.769.08ZM21.452 16.5a5.166 5.166 0 0 0-.973-.094l-.243.006a.547.547 0 0 0-.522.57.558.558 0 0 0 .57.523l.196-.005c.254 0 .512.025.766.074a.547.547 0 0 0 .206-1.075Zm3.158 1.413a20.61 20.61 0 0 0-.97-.568.547.547 0 0 0-.521.961c.31.168.614.352.916.539a.546.546 0 1 0 .575-.931Zm2.873 16.065a6.976 6.976 0 0 1-.334.567 3.64 3.64 0 0 1-.199.28.548.548 0 0 0 .866.668c.088-.114.17-.23.249-.349.138-.211.265-.43.384-.651a.547.547 0 0 0-.966-.515Zm2.408-2.399a.539.539 0 0 0-.187-.74.553.553 0 0 0-.754.183c-.202.32-.378.655-.544.997a.547.547 0 0 0 .985.476c.148-.305.305-.605.459-.854a.733.733 0 0 0 .041-.062ZM15.622 62.163c1.45.66 3.04.82 4.552.82.551 0 1.093-.02 1.613-.047 1.22-.062 2.516-.157 3.772-.556 1.41-.447 2.556-1.252 3.228-2.264.818-1.234.903-2.833.212-3.979-.39-.648-.975-1.12-1.54-1.575-.648-.523-1.26-1.017-1.427-1.682-.156-.62.137-1.398.746-1.983.617-.594 1.459-.976 2.273-1.347a.546.546 0 1 0-.453-.995c-.856.388-1.827.83-2.578 1.554-.9.865-1.302 2.03-1.049 3.038.256 1.02 1.042 1.653 1.801 2.266.514.414 1 .806 1.29 1.288.478.793.403 1.922-.186 2.81-.535.806-1.476 1.455-2.648 1.827-1.133.359-2.349.446-3.497.506-1.812.09-3.899.124-5.657-.676-1.531-.698-2.928-2.308-2.633-4.04.184-1.082.996-2.023 1.782-2.934l.27-.315c.918-1.077 1.941-2.523 1.7-4.16-.183-1.253-1.03-2.158-1.848-3.032-.567-.606-1.103-1.18-1.41-1.843-.518-1.122-.285-2.542.567-3.453.86-.921 2.31-1.29 3.526-.89.447.145.87.385 1.319.637.648.365 1.32.743 2.117.864.784.118 1.535-.035 2.26-.183l.151-.031c.662-.135 1.358-.253 1.965-.081a.547.547 0 0 0 .296-1.053c-.842-.236-1.684-.099-2.477.062l-.153.03c-.662.136-1.288.26-1.878.175-.6-.091-1.155-.405-1.745-.736-.475-.269-.966-.545-1.515-.725-1.606-.522-3.524-.036-4.665 1.183-1.147 1.23-1.46 3.144-.76 4.66.38.824 1.002 1.488 1.604 2.13.736.787 1.43 1.53 1.564 2.445.177 1.202-.681 2.39-1.45 3.292l-.266.31c-.883 1.024-1.797 2.082-2.031 3.464-.389 2.277 1.345 4.349 3.258 5.22Zm18.028-2.061c.343.266.76.41 1.239.43h.024c.296 0 .542-.215.554-.489.013-.281-.224-.518-.53-.531a.996.996 0 0 1-.627-.235.59.59 0 0 0-.784-.006.481.481 0 0 0-.008.72c.04.039.084.074.131.111Zm2.495-6.829.124-.001c.307-.009.456-.244.448-.526-.009-.28-.366-.524-.663-.495-.166-.004-.34-.04-.517-.073l-.284-.052a.541.541 0 0 0-.643.413c-.054.277.147.542.449.59l.252.046c.244.047.485.09.713.096l.121.002Zm1.2 6.476c.272-.157.552-.317.838-.45.274-.128.384-.434.245-.685-.139-.252-.473-.349-.746-.225-.315.147-.624.322-1 .537-.346.169-.418.488-.237.765.182.24.612.216.9.058Zm-3.962-4.58c.289 0 .533-.205.553-.473.028-.359.08-.664.152-.908.082-.272-.092-.553-.388-.628-.296-.072-.6.085-.681.357a5.278 5.278 0 0 0-.19 1.105c-.022.28.208.525.514.546h.04Zm12.851-1.411a.581.581 0 0 0 .354.116.57.57 0 0 0 .428-.185l.25-.269c.165-.176.33-.353.478-.535a.484.484 0 0 0-.117-.714.593.593 0 0 0-.776.106c-.13.164-.278.32-.426.476l-.265.287a.482.482 0 0 0 .075.718Zm-6.748-2.005a.48.48 0 0 0-.05-.72.588.588 0 0 0-.783.047 4.944 4.944 0 0 1-.716.639.483.483 0 0 0-.104.715c.11.131.274.2.441.2a.584.584 0 0 0 .337-.105c.356-.25.655-.547.875-.776Zm-6.673 5.949c-.009.281.232.517.539.524h.016c.299 0 .546-.219.555-.495l.01-.245a6.28 6.28 0 0 0 .008-.32 17.5 17.5 0 0 0-.008-.483c-.008-.282-.274-.478-.57-.496-.305.008-.547.242-.54.524.005.164.009.317.009.455 0 .099-.002.19-.007.268l-.012.268Zm6.984 1.465c.278.134.53.358.72.537a.573.573 0 0 0 .4.156.582.582 0 0 0 .384-.142.481.481 0 0 0 .015-.721c-.247-.236-.585-.532-1.003-.734-.27-.126-.606-.035-.75.215-.142.25-.037.558.234.69Zm6.588 1.075a2.4 2.4 0 0 1-.687.342l-.115.035c-.292.083-.457.368-.366.637a.55.55 0 0 0 .53.36.582.582 0 0 0 .164-.023l.14-.042c.366-.113.72-.29 1.021-.509a.482.482 0 0 0 .092-.715.588.588 0 0 0-.779-.085Zm1.222-.909c.29-.091.444-.382.344-.648-.145-.389-.403-.72-.66-1.018a.589.589 0 0 0-.779-.085.482.482 0 0 0-.092.716c.227.264.395.487.482.718.08.212.294.344.525.344.06 0 .12-.008.18-.027Zm-2.435-4.175a3.645 3.645 0 0 0 .075 1.168c.055.24.286.404.542.404a.659.659 0 0 0 .116-.011c.3-.058.491-.329.428-.605a2.672 2.672 0 0 1-.055-.859c.03-.28-.195-.53-.5-.556-.302-.013-.575.178-.606.459Zm-3.812-6.164a6.15 6.15 0 0 0-1.06.558.484.484 0 0 0-.127.712.571.571 0 0 0 .45.212.58.58 0 0 0 .325-.096 4.98 4.98 0 0 1 .863-.454c.28-.114.406-.415.281-.673-.124-.258-.453-.373-.732-.259Zm6.7 1.449a3.104 3.104 0 0 0-.853-.93.592.592 0 0 0-.782.074.483.483 0 0 0 .082.718c.252.187.45.399.572.612a.56.56 0 0 0 .49.273.59.59 0 0 0 .259-.059c.272-.13.376-.439.233-.688Zm-6.003 10.029c-.156.243-.068.556.196.7.361.196.75.346 1.16.447.047.01.096.017.142.017.245 0 .47-.15.537-.379.079-.272-.098-.551-.394-.624a3.649 3.649 0 0 1-.88-.34.587.587 0 0 0-.76.18Zm2.886-11.87a6.448 6.448 0 0 0-1.088-.091h-.134a.488.488 0 0 0-.487.524c.007.277.304.495.604.495.286.015.61.024.9.074a.596.596 0 0 0 .104.009c.261 0 .494-.172.544-.416.056-.277-.142-.543-.443-.595Z"/></svg>