<svg xmlns="http://www.w3.org/2000/svg" width="70" height="70" fill="none"><path fill="#AA8A60" d="M9.297 53.594a.546.546 0 0 0-.547-.547 1.642 1.642 0 0 1 0-3.281c.905 0 1.64.736 1.64 1.64a.547.547 0 1 0 1.094 0 2.737 2.737 0 0 0-2.734-2.734 2.737 2.737 0 0 0-2.734 2.734 2.737 2.737 0 0 0 2.734 2.735.546.546 0 0 0 .547-.547ZM64.531 6.016H16.406a.546.546 0 1 0 0 1.093h48.125c.905 0 1.64.736 1.64 1.641v45.938c0 .904-.735 1.64-1.64 1.64h-1.094a.547.547 0 1 0 0 1.094h1.094a2.737 2.737 0 0 0 2.735-2.734V8.75a2.737 2.737 0 0 0-2.735-2.734Z"/><path fill="#AA8A60" d="M52.5 56.328H12.198a6.01 6.01 0 0 0 2.568-4.922v-7.11H29.53a.547.547 0 0 0 .547-.546v-6.016h5.469v6.016c0 .302.244.547.547.547h5.468a.547.547 0 0 0 .547-.547V31.172h2.735a.548.548 0 0 0 .367-.952L33.18 19.283c-.025-.023-.056-.034-.084-.052-.027-.017-.05-.037-.08-.05a.544.544 0 0 0-.19-.038c-.004 0-.008-.003-.014-.003H14.767V8.75c0-3.317-2.7-6.016-6.016-6.016A6.023 6.023 0 0 0 2.734 8.75v42.656c0 3.317 2.7 6.016 6.016 6.016H52.5a.547.547 0 1 0 0-1.094ZM14.766 31.172h8.75v12.031h-8.75V31.172Zm26.797-1.094a.547.547 0 0 0-.547.547v12.578H36.64v-6.016a.546.546 0 0 0-.547-.546H29.53a.546.546 0 0 0-.547.547v6.015H24.61V30.625a.547.547 0 0 0-.547-.547h-1.867l10.617-9.651 10.617 9.651h-1.867Zm-10.165-9.844L20.57 30.078h-5.804v-9.844h16.632ZM3.828 8.75A4.927 4.927 0 0 1 8.75 3.828a4.927 4.927 0 0 1 4.922 4.922v39.209A6.01 6.01 0 0 0 8.75 45.39a6.01 6.01 0 0 0-4.922 2.568V8.75Zm0 42.656a4.927 4.927 0 0 1 4.922-4.922 4.927 4.927 0 0 1 4.922 4.922 4.927 4.927 0 0 1-4.922 4.922 4.927 4.927 0 0 1-4.922-4.922ZM61.25 10.39h-6.563a.547.547 0 0 0-.546.547V66.72c0 .302.244.547.547.547h6.562a.546.546 0 0 0 .547-.547V10.938a.547.547 0 0 0-.547-.547Zm-.547 55.782h-5.469v-2.188h1.641a.547.547 0 1 0 0-1.093h-1.64v-2.188h2.734a.546.546 0 1 0 0-1.094h-2.735v-2.187h1.641a.547.547 0 1 0 0-1.094h-1.64v-2.187h2.734a.546.546 0 1 0 0-1.094h-2.735v-2.188h1.641a.547.547 0 1 0 0-1.093h-1.64v-2.188h2.734a.546.546 0 1 0 0-1.094h-2.735v-2.187h1.641a.547.547 0 1 0 0-1.094h-1.64v-2.187h2.734a.546.546 0 1 0 0-1.094h-2.735v-2.188h1.641a.547.547 0 1 0 0-1.093h-1.64v-2.188h2.734a.546.546 0 1 0 0-1.094h-2.735v-2.187h1.641a.547.547 0 1 0 0-1.094h-1.64v-2.187h2.734a.546.546 0 1 0 0-1.094h-2.735v-2.188h1.641a.547.547 0 1 0 0-1.093h-1.64v-2.188h2.734a.546.546 0 1 0 0-1.094h-2.735v-2.187h1.641a.547.547 0 1 0 0-1.094h-1.64v-2.187h2.734a.546.546 0 1 0 0-1.094h-2.735v-2.188h5.47v54.688Z"/><path fill="#AA8A60" d="M47.031 47.578a.546.546 0 1 0 0 1.094h2.188a.546.546 0 0 0 .547-.547V15.312a.546.546 0 0 0-.547-.546H47.03a.546.546 0 1 0 0 1.093h1.64v31.72h-1.64ZM44.844 15.86a.546.546 0 1 0 0-1.094H43.75a.547.547 0 1 0 0 1.093h1.094Zm-3.281 0a.547.547 0 1 0 0-1.094h-1.094a.547.547 0 1 0 0 1.093h1.093Zm-3.282 0a.547.547 0 1 0 0-1.094h-1.093a.547.547 0 1 0 0 1.093h1.093Zm-3.281 0a.547.547 0 1 0 0-1.094h-1.094a.546.546 0 1 0 0 1.093H35Zm-3.281 0a.546.546 0 1 0 0-1.094h-1.094a.547.547 0 1 0 0 1.093h1.094Zm-3.281 0a.547.547 0 1 0 0-1.094h-1.094a.547.547 0 1 0 0 1.093h1.093Zm-3.282 0a.547.547 0 1 0 0-1.094h-1.093a.547.547 0 1 0 0 1.093h1.093Zm-3.281 0a.547.547 0 1 0 0-1.094h-1.094a.546.546 0 1 0 0 1.093h1.094Zm-3.281 0a.546.546 0 1 0 0-1.094H17.5a.547.547 0 1 0 0 1.093h1.094Zm26.25 31.718H43.75a.547.547 0 1 0 0 1.094h1.094a.546.546 0 1 0 0-1.094Zm-3.281 0h-1.094a.547.547 0 1 0 0 1.094h1.093a.547.547 0 1 0 0-1.094Zm-4.375 0a.547.547 0 1 0 0 1.094h1.093a.547.547 0 1 0 0-1.094h-1.093Zm-3.282 0a.546.546 0 1 0 0 1.094H35a.547.547 0 1 0 0-1.094h-1.094Zm-3.281 0a.547.547 0 1 0 0 1.094h1.094a.546.546 0 1 0 0-1.094h-1.094Zm-3.281 0a.547.547 0 1 0 0 1.094h1.093a.547.547 0 1 0 0-1.094h-1.093Zm-3.281 0a.547.547 0 1 0 0 1.094h1.093a.547.547 0 1 0 0-1.094h-1.093Zm-3.282 0a.546.546 0 1 0 0 1.094h1.094a.547.547 0 1 0 0-1.094h-1.094Zm-3.281 0a.547.547 0 1 0 0 1.094h1.094a.546.546 0 1 0 0-1.094H17.5ZM48.672 59.61H10.39a.55.55 0 0 0-.245.057l-6.562 3.281a.548.548 0 0 0 0 .979l6.562 3.281c.076.038.16.058.245.058h38.28a3.833 3.833 0 0 0 3.829-3.829 3.833 3.833 0 0 0-3.828-3.828Zm-6.016 3.28H10.938v-2.187h31.718v2.188Zm-31.718 1.094h31.718v2.188H10.938v-2.188Zm32.812-3.28h2.188v5.468H43.75v-5.469Zm-33.906.337v4.793L5.05 63.437l4.793-2.396Zm38.828 5.13h-1.64v-5.468h1.64a2.737 2.737 0 0 1 2.734 2.734 2.737 2.737 0 0 1-2.734 2.735Z"/></svg>