<svg xmlns="http://www.w3.org/2000/svg" width="70" height="70" fill="none"><path fill="#AA8A60" d="M18.649 13.975a6.089 6.089 0 0 0 4.35 5.827L13.584 36.11a.248.248 0 0 1-.333.09l-2.739-1.584a.241.241 0 0 1-.088-.332l8.742-15.141a.546.546 0 1 0-.947-.547L9.476 33.737a1.33 1.33 0 0 0-.133 1.015c.05.188.145.354.265.5l-2.47 7.3a.546.546 0 0 0 .929.537l5.09-5.791c.07.011.142.027.213.027.463 0 .913-.24 1.161-.668l9.602-16.631a6.059 6.059 0 0 0 5.071-1.948l5.527 9.572-3.16 1.825-4.645-8.044a.546.546 0 1 0-.947.547l8.474 14.679a1.34 1.34 0 0 0 1.828.489l2.738-1.581c.074-.043.124-.11.187-.164l2.913 5.045a.54.54 0 0 0 .134.156l3.346 2.632a.548.548 0 0 0 .88-.507l-.607-4.213a.558.558 0 0 0-.068-.196l-5.3-9.18a2.122 2.122 0 0 0 .549-2.05l.492-.284.122.212a.546.546 0 1 0 .946-.547l-.79-1.37a.545.545 0 0 0-.747-.2.545.545 0 0 0-.2.747l.122.211-.491.284a2.118 2.118 0 0 0-2.051-.55l-.558-.965a2.13 2.13 0 0 0-2.905-.778c-.32.184-.573.448-.757.757l-4.318-7.478c.562-.92.89-1.997.89-3.152a6.083 6.083 0 0 0-3.161-5.331V5.652a2.922 2.922 0 0 0-2.918-2.918 2.922 2.922 0 0 0-2.918 2.918v2.992a6.083 6.083 0 0 0-3.162 5.331Zm-8.105 21.923.791.457.791.458-3.076 3.5 1.494-4.415Zm27.928-1.28-2.738 1.58a.243.243 0 0 1-.333-.088l-1.703-2.95 3.161-1.825 1.702 2.95a.244.244 0 0 1-.089.333Zm1.125-4.864 4.986 8.638-1.79 1.034-4.987-8.638 1.79-1.034Zm3.968 10.488 1.34-.773.297 2.06-1.637-1.287Zm-3.662-13.12a1.037 1.037 0 0 1-.38 1.413l-6.372 3.678-1.033-1.792 6.371-3.679a1.038 1.038 0 0 1 1.414.38Zm-4.845-1.7a1.034 1.034 0 0 1 1.895-.249l.516.896-1.79 1.034-.518-.896a1.026 1.026 0 0 1-.103-.785Zm-5.343-11.447a4.993 4.993 0 0 1-4.986 4.987 4.993 4.993 0 0 1-4.986-4.987 4.992 4.992 0 0 1 4.986-4.986 4.992 4.992 0 0 1 4.986 4.986Zm-6.81-8.323c0-1.006.818-1.824 1.824-1.824 1.006 0 1.824.818 1.824 1.824v2.524a6.058 6.058 0 0 0-3.648 0V5.652Z"/><path fill="#AA8A60" d="M21.81 13.975a2.922 2.922 0 0 0 2.919 2.918c1.61 0 2.918-1.31 2.918-2.918a2.922 2.922 0 0 0-2.918-2.918 2.922 2.922 0 0 0-2.918 2.918Zm4.743 0A1.826 1.826 0 0 1 24.73 15.8a1.826 1.826 0 0 1-1.824-1.825c0-1.006.818-1.824 1.824-1.824 1.006 0 1.824.818 1.824 1.824ZM65.625 59.61H4.375c-.905 0-1.64.735-1.64 1.64v4.375c0 .905.735 1.64 1.64 1.64h61.25c.905 0 1.64-.735 1.64-1.64V61.25c0-.905-.735-1.64-1.64-1.64Zm.547 6.015a.548.548 0 0 1-.547.547H4.375a.548.548 0 0 1-.547-.547V61.25c0-.301.245-.547.547-.547h1.64v1.64a.546.546 0 1 0 1.094 0v-1.64h1.094v.547a.547.547 0 1 0 1.094 0v-.547h1.094v.547a.547.547 0 1 0 1.093 0v-.547h1.094v.547a.547.547 0 1 0 1.094 0v-.547h1.094v1.64a.546.546 0 1 0 1.093 0v-1.64h1.094v.547a.547.547 0 1 0 1.094 0v-.547h1.094v.547a.547.547 0 1 0 1.093 0v-.547h1.094v.547a.547.547 0 1 0 1.094 0v-.547h1.094v1.64a.546.546 0 1 0 1.093 0v-1.64h1.094v.547a.547.547 0 1 0 1.094 0v-.547h1.094v.547a.547.547 0 1 0 1.093 0v-.547h1.094v.547a.547.547 0 1 0 1.094 0v-.547h1.094v1.64a.546.546 0 1 0 1.093 0v-1.64h1.094v.547a.547.547 0 1 0 1.094 0v-.547h1.094v.547a.547.547 0 1 0 1.093 0v-.547h1.094v.547a.547.547 0 1 0 1.094 0v-.547h1.094v1.64a.546.546 0 1 0 1.093 0v-1.64h1.094v.547a.547.547 0 1 0 1.094 0v-.547h1.094v.547a.547.547 0 1 0 1.093 0v-.547h1.094v.547a.547.547 0 1 0 1.094 0v-.547h1.094v1.64a.546.546 0 1 0 1.093 0v-1.64h1.094v.547a.547.547 0 1 0 1.094 0v-.547h1.094v.547a.547.547 0 1 0 1.093 0v-.547h1.094v.547a.547.547 0 1 0 1.094 0v-.547h1.094v1.64a.546.546 0 1 0 1.093 0v-1.64h1.094v.547a.547.547 0 1 0 1.094 0v-.547h1.094v.547a.547.547 0 1 0 1.093 0v-.547h1.641c.301 0 .547.246.547.547v4.375ZM29.531 7.11h26.25a.546.546 0 1 0 0-1.094h-26.25a.546.546 0 1 0 0 1.093Z"/><path fill="#AA8A60" d="M62.344 2.734a4.927 4.927 0 0 0-4.922 4.922V50.86H5.469c-.905 0-1.64-.736-1.64-1.64V8.75c0-.905.735-1.64 1.64-1.64h14.52a.547.547 0 1 0 0-1.094H5.47A2.737 2.737 0 0 0 2.734 8.75v40.469a2.737 2.737 0 0 0 2.735 2.734h52.5a.546.546 0 0 0 .547-.547 3.81 3.81 0 0 1 1.444-2.995c.917-.732 2.122-.995 3.293-.73 1.37.314 2.502 1.446 2.815 2.816.268 1.175.002 2.376-.73 3.293a3.813 3.813 0 0 1-2.994 1.444H10.937c-.904 0-1.64-.736-1.64-1.64a.546.546 0 1 0-1.094 0 2.737 2.737 0 0 0 2.735 2.734h51.406a4.91 4.91 0 0 0 4.918-4.904c0-.006.004-.011.004-.018V7.656a4.927 4.927 0 0 0-4.922-4.922Zm1.152 43.882a4.958 4.958 0 0 0-4.219.94 4.978 4.978 0 0 0-.761.758V7.656a3.833 3.833 0 0 1 3.828-3.828 3.833 3.833 0 0 1 3.828 3.828V48.3a4.845 4.845 0 0 0-2.676-1.684Z"/><path fill="#AA8A60" d="M27.707 44.636a.547.547 0 0 0-.49.978c.33.164.666.321 1.007.468a.55.55 0 0 0 .719-.288.548.548 0 0 0-.288-.718 17.569 17.569 0 0 1-.948-.44Zm-8.358-9.016a.547.547 0 1 0-1.012.415c.141.345.293.684.454 1.017a.547.547 0 1 0 .985-.474 18.153 18.153 0 0 1-.427-.957Zm5.695 7.365a.547.547 0 1 0-.658.874c.295.222.598.436.907.64a.544.544 0 0 0 .758-.15.546.546 0 0 0-.152-.76 18.543 18.543 0 0 1-.855-.604Zm-3.101-2.13a.546.546 0 0 0-.03.773c.252.271.512.535.779.792a.547.547 0 0 0 .758-.788 18.31 18.31 0 0 1-.735-.748.545.545 0 0 0-.772-.029Zm-1.442-.944a.546.546 0 1 0 .886-.643c-.206-.282-.403-.57-.59-.865a.546.546 0 0 0-.922.59c.2.312.408.617.626.918Zm30.992-20.494a.55.55 0 0 0-.751-.187.548.548 0 0 0-.187.751c.18.3.351.604.513.913a.547.547 0 1 0 .97-.506 18.73 18.73 0 0 0-.545-.97Zm1.454 2.999a.548.548 0 0 0-1.023.387c.123.326.237.656.341.99a.547.547 0 1 0 1.045-.322 17.91 17.91 0 0 0-.363-1.055Zm-.184 3.409c.062.344.115.689.158 1.037a.546.546 0 1 0 1.085-.132c-.045-.37-.1-.736-.167-1.1a.556.556 0 0 0-.635-.44.547.547 0 0 0-.441.635Zm-2.623-7.474a.545.545 0 0 0 .096-.767 19.397 19.397 0 0 0-.709-.857.548.548 0 0 0-.822.722c.23.261.453.53.668.806a.545.545 0 0 0 .767.096Zm-2.173-3.205c-.276-.248-.56-.488-.851-.719a.546.546 0 1 0-.68.857c.275.218.54.443.798.676a.547.547 0 0 0 .733-.814Zm.421 27.067c.14 0 .28-.055.389-.161.26-.264.513-.535.758-.814a.549.549 0 0 0-.05-.773.55.55 0 0 0-.773.05c-.23.262-.467.519-.713.765a.549.549 0 0 0 .389.933Zm2.057-2.493a.546.546 0 0 0 .45-.237c.21-.306.41-.616.602-.935a.548.548 0 0 0-.187-.75.55.55 0 0 0-.75.186 17.2 17.2 0 0 1-.566.88.547.547 0 0 0 .45.856Zm1.359-2.866a.55.55 0 0 0 .723-.276c.15-.338.29-.68.423-1.028a.548.548 0 0 0-.318-.706.553.553 0 0 0-.706.317c-.123.328-.256.652-.399.97-.123.277.001.6.277.723ZM44.34 12.596a.546.546 0 1 0-.52.962c.307.166.61.34.907.523a.548.548 0 0 0 .572-.931 19.019 19.019 0 0 0-.96-.554Zm9.77 17.463c.021-.366.032-.729.032-1.11a.538.538 0 0 0-.547-.537.555.555 0 0 0-.547.556 18.434 18.434 0 0 1-.034 1.107c-.014.3.22.519.52.535h.025c.289 0 .535-.258.55-.551Zm-.505 3.366c.09-.358.166-.72.233-1.088a.548.548 0 0 0-.44-.636.552.552 0 0 0-.636.44c-.063.346-.136.686-.218 1.024a.545.545 0 1 0 1.061.26Zm-9.781 10.981c-.308.165-.62.322-.938.47a.547.547 0 0 0 .461.991c.337-.156.669-.321.996-.498a.547.547 0 0 0-.52-.963Zm-9.289 2.05c-.28-.018-.558-.04-.836-.069a.542.542 0 0 0-.6.487c-.032.3.186.57.487.6.293.031.588.056.884.073l.217.012h.032a.547.547 0 0 0 .032-1.092l-.216-.011Zm-3.913-.674a.544.544 0 0 0-.677.371.545.545 0 0 0 .371.677c.354.104.713.198 1.077.28a.547.547 0 0 0 .241-1.066 18.31 18.31 0 0 1-1.012-.262Zm6.213.656a.548.548 0 0 0 .04 1.093l.041-.001c.372-.028.74-.066 1.105-.114a.548.548 0 0 0-.144-1.085c-.344.045-.692.082-1.042.107ZM35.53 10.39c-.279 0-.558.006-.834.018a.548.548 0 0 0 .023 1.093h.024c.261-.011.523-.018.794-.018l.252.001h.008a.546.546 0 0 0 .006-1.093l-.272-.002Zm5.742.9a.546.546 0 1 0-.335 1.04c.333.108.66.226.986.352a.544.544 0 0 0 .708-.311.547.547 0 0 0-.311-.708 18.259 18.259 0 0 0-1.048-.373Z"/><path fill="#1C1A18" d="M40.938 45.639a16.98 16.98 0 0 1-1.006.292.547.547 0 0 0 .273 1.06c.362-.094.718-.198 1.07-.312a.547.547 0 0 0-.337-1.04Zm-2.914-35.085a.552.552 0 0 0-.615.468.544.544 0 0 0 .467.615c.349.048.694.104 1.034.17a.547.547 0 1 0 .21-1.075 20.41 20.41 0 0 0-1.096-.178Z"/></svg>